<?xml version="1.0" encoding="UTF-8"?>
<svg id="odin" xmlns="http://www.w3.org/2000/svg" version="1.1" viewBox="0 0 1920 1080">
  <defs>
    <style>
      .cls-1 {
        fill: #a78a57;
      }

      .cls-1, .cls-2 {
        stroke-width: 0px;
      }

      .cls-2 {
        fill: #2a2224;
      }
    </style>
  </defs>
  <g id="Layer_2" data-name="Layer 2">
    <g id="Layer_79" data-name="Layer 79">
      <path class="cls-1" d="M985,499.1c.8.4,1.5.7,2.3,1.1.5.2,1,.6.9,1.2,0,.5-.5.8-.9,1-.3.2-.6.1-.9.5.7.3,1.4.5,1.9,1,.5.4.8.9,1,1.5.1.5.3,1,0,1.4-.3.3-.7-.1-1.1-.3-2.1-.8-4.1-.9-6.2-.2-2.3.7-3.3.1-4.1-2.2,0-.1,0-.3-.2-.5-.5.5-.3,1.1-.4,1.6,0,.3-.2.7-.6.6-.3,0-.6-.3-.6-.7,0-.5,0-1-.3-1.6-.3.6-.4,1.2-.7,1.7-.7,1.3-1.8,1.7-3.1,1.3-2.4-.8-4.8-.9-7.1.3-.9.4-1.1,0-1.1-.7,0-.9.5-1.7,1.3-2.2.5-.4,1.1-.6,1.7-.9-.1,0-.3-.2-.4-.3-.6-.3-1.4-.5-1.4-1.3,0-.8.9-.9,1.5-1.2,1.3-.7,2.8-1.2,4.3-1.6-1.6-.4-4.8.7-8.3,2.9-.5-2.9,0-3.9,2.7-5,.9-.4,1.9-.7,3.2-1.1-1.9-.3-3.3.2-4.7.8.4-3.6,5-7.4,8.3-8.1-.8.7-1.7.8-2.3,1.4-.4.2-1,.4-.8.8.3.4.7-.2,1-.4,0,0,0,0,0,0,2.3-.4,3,0,3.9,2.6,0-2.1,0-3.9-1.6-5.4-.4-.4-.2-.6.1-.8,1.2-.6,2.3-1.3,3.5-1.9.4-.2.7-.2,1.1,0,1.1.7,2.2,1.3,3.3,1.9.3.2.7.3.2.8-1.7,1.4-1.7,3.3-1.6,5.4.8-2,1.1-3.1,4.3-2.5-.3-.7-.5-.8-1.9-1.5,2.5-.4,6.9,3.8,8.1,7.8-1.5-.8-2.9-1.2-4.5-.8.9.3,1.8.6,2.7.9,2.7,1.1,3.3,2.1,2.9,5.1-1.8-1.1-3.4-2.3-5.6-2.4-.2-.5-.6-.4-1-.5-1.4-.4-2.9-.3-4.3-.7,0-.3.4-.6,0-.9-.4-.3-.5.2-.7.4-.7.7-1.4,1.5-2,2.2-.4.5-.8.6-1.2,0-.7-.8-1.4-1.6-2.1-2.3-.2-.2-.3-.6-.6-.3-.3.3,0,.5.2.7.8.9,1.6,1.8,2.4,2.7.5.6.9.6,1.4,0,.8-.9,1.5-2,2.6-2.7.1,0,.3-.2.4-.2,1.4,1,3.1,1.1,4.6,1.6ZM967.9,491.8c.2-.3.8-.5.5-1-.5,0-.6.4-.8.7,0,.1-.2.3-.2.3.2.2.3,0,.5,0ZM975.1,497.2c.1.1.2.2.4.4.3.3.6.7.9,1,.2.2.5.4.7,0,.6-.7,1.3-1.5,1.9-2.3.2-.2,0-.4,0-.6-1.3-2.1-2.2-2.2-4-.5-1.1.8-1.1.8.2,1.9ZM976.1,489.8c.4,1,.8,1.1,1.3.1.4-.7.8-1.3,1.2-1.9,1.1-1.7,1-1.8-.9-2.5-.2,0-.4,0-.6-.1-1.1-.7-1.7.4-2.6.7-.5.2-.6.6-.2,1,.6.9,1.2,1.8,1.7,2.7ZM985.9,492.1c-.5-1.7-1.7-2.7-2.6-2.5.9.8,1.8,1.7,2.6,2.5ZM968.6,490.8s0,0,0,0c0,0,0,0,0,0,0,0,0,0,.1,0,0,0,0,0,0,0ZM969.1,490.4s0,0,0-.1c0,0,0,0,0,0,0,0,0,.1,0,.2,0,0,0,0,0,0Z"/>
      <path class="cls-1" d="M974.6,511.2c-.3,1-.9,1.4-1.8,1.7-1.1.4-1.7,2-1.2,3.7.3,1,.2,1.5-.9,1.7-.7.1-1.1.7-1.6,1.2-.6-.5.4-1.2-.3-1.7-.5-.3-1-.4-1.5-.7-.4-.2-.9-.5-1-1.2,1.1.4,2.1.9,3.3.4-1.9-.8-3.7-1.7-4.5-3.8-.2-.6-.4-1.3-.1-2.2,1.7,1.8,3.6,2.3,5.8,1.2-1.6,0-3.2-.2-4.5-1.2.1-.3.4-.2.5-.1,2.1.7,4.2.3,6.3-.2,1-.3,1.5-1,1.9-1.8,1.4-2.3,1.7-2.3,3.2,0,1.4,2.2,3.7,2.3,6,2.4,1,0,2-.4,3.1-.7-.9,1.2-1.1,1.3-4.7,1.6,1.4,1.1,3.1.9,5.7-.9.4,1.2-.1,2.6-1.1,3.7-.9,1-2.3,1.3-3.6,2.2,1.4.3,2.5-.1,3.7-.6-.3.8-.8,1.1-1.4,1.4-1.3.7-1.3.7-1.3,2.1-.9-.6-1.6-1.3-2.7-1.5-.5,0-.2-.4-.1-.6.4-1,.5-2,.1-3.1-.2-.6-.6-1.2-1.2-1.3-1.1-.2-1.4-.8-1.6-1.8,0-.2,0-.5-.4-.6,0,.8,0,1.7,0,2.5,0,.7,0,1.4,1.1.9.8-.3,1.5,1.1,1.1,2.1-.7,1.7-3.7,2.9-5.4,2.2-.9-.4-1.7-.8-2.4-1.6-.5-.6-.7-1.3-.3-2.1.4-.8.9-.8,1.6-.5.2.1.4,0,.4-.2,0-.8.3-1.7-.2-2.6ZM979.8,509.5s0,0,0,0c0,.1.1.1.2,0,0,0,0,0,0,0,0,0,0,0,0,0Z"/>
      <path class="cls-1" d="M976.4,527.5c-.5,2.2-1.8,3.2-3.7,3.7-1.8.5-2.5,1.8-2.4,3.7.2,1.7,0,3.3-1,4.7-.9,1.4-2.8,1.8-4.1.9-1-.6-1.2-2-.5-2.8.4-.4.9-.8,1.4-.3.4.4.6.8,1.1.4.6-.3.9-.8.9-1.5,0-.5-.2-.9-.3-1.4-.8-2.6,0-4.1,2.6-5,.4-.1.8-.2,1.3-.3,2.1-.5,2.9-1.6,2.5-3.7,0-.3-.1-.7-.2-1.2,1.7.6,3.4.8,5.2,0,0,.7-.1,1.3-.2,1.9,0,1.7.6,2.6,2.3,3,.9.2,1.9.4,2.7.9,1.4.8,1.9,1.9,1.6,3.4-.2.8-.4,1.5-.6,2.3-.1.7.2,1.2.8,1.6.6.3.8-.1,1.2-.4.6-.5,1.2,0,1.6.5.6.9,0,2.4-1.1,2.9-1.3.6-2.9.1-3.7-1.1-.9-1.4-1.2-2.9-1-4.5.2-2.1-.6-3.5-2.6-4-1.7-.4-2.8-1.3-3.3-2.9,0-.2-.2-.3-.5-.7Z"/>
      <path class="cls-1" d="M958.7,505.3c-.2,0-.3-.2-.5-.3-.1,0-.3-.2-.4-.2-.3-.3-.6-.6-.9-.9.2-.5.8,0,1-.5-.5-.8-1.4-1.1-1.9-1.8.3-.5.5-.1.7,0,.4.3.7.8,1.3.6,0,0,0,0,0,0,0,0,0,0,0,0,0,0,0,0,0,0-.1,0-.2-.2-.3-.3.1,0,.2-.2.3-.3.1,0,.2,0,.3,0,0,0,0,0,0-.1-.7-.4-1.5-.7-2.3-.8-.4,0-.6-.1-.6-.6.3-.1.7.2,1-.1-.2-.5-.6-.8-1-1.1-.5-.7-.9-1.5-1.1-2.4-.1-.4-.6-.9.3-1.2.5-.1,0-.6-.1-.9-.5-.8-.9-1.6-1.2-2.6.5-.2.7.5,1.3.2-.7-1.7-1.7-3.3-2.1-5.3,1.1.6,1.6,1.6,2.9,2.2-1.2-2.7-2.3-5.2-2.6-8.1.5.2.6.6.9.8,2.6,3.6,5.1,7.2,8.4,10.3,1,.9,1.1,2.1.7,3.3-.5,1.7-1.3,3.2-1.5,5-.3,2.7.2,5.2,1.3,8-1.2-.9-1.8-2.2-3-2.7-.4-.8-.5-1.8-1.8-1.5,0,.6,1,.5.9,1.2ZM956.9,498.5c0,0,.2.1.3,0,0,0-.1,0-.2-.1-.4-.7-1.1-1.2-1.9-1.6.6.5.1,2.1,1.7,1.7ZM955.7,486.7c.4,0,.4.3.6.5,1.2,1.7,2.5,3.4,4,4.9.9.9,1,1.9.7,3-.1.5-.4,1-.5,1.5-.7,2.1-1.1,4.2-.3,6.7,0-.9,0-1.5,0-2.1,0-1.7.4-3.4,1.1-5,.6-1.4,1.1-2.9-.2-4.1-1.9-1.8-3.3-3.9-4.8-6-.8-1.1-1.3-2.3-2.3-3.3,0,1.7.8,4,1.7,4.8.3-.3-.4-.6,0-1ZM958.1,492.4c-1.3-1.2-2.6-2.4-3.9-3.6,0,1,.4,1.8.8,2.6,0,.2.3.5.4.3.6-.9.9.1,1.3.2.4.1.7.6,1.4.5ZM954.8,493.9c1,1.9,1.1,2,2.4,1.4-.9-.4-1.3-1.3-2.4-1.4ZM954.7,492.4s0,0,0,0c0,0,0,0,0,0,0,0,0,0,0,0,0,0,0,0,0,0Z"/>
      <path class="cls-1" d="M991.4,505.6c.9-3.1.9-6.1-.4-9.1-.3-.6-.5-1.3-.7-1.9-.3-1-.3-2,.5-2.8,3.6-3.4,6.3-7.5,9.4-11.4-.2,2.8-1.2,5.2-2.5,7.9,1.3-.5,1.9-1.5,3-2.1-.5,2.1-1.3,3.7-2.3,5.3.6.5.9-.2,1.5-.3-.2,1.1-.8,2.1-1.3,3-.2.3-.8.8.3.8.5,0,.3.4.2.6-.3,1.2-.9,2.3-1.7,3.3-.2.2-.9.6.1.8.6.1.2.5,0,.8-.6,1.1-1.6,1.7-2.3,2.4-.1.8,1.6-.5.8,1-.5-.3-1.1-.3-1.7-.2-.7,0-.7.4-.8,1,0,.5-.6.8-1,1.3,0,0,0,0,0,0-.5.3-.7.9-1.3,1.1,0,0-.1-.1-.2-.2l.4-1.3ZM996,495c-.1,0-.4,0-.3.2,0,.1.3,0,.4,0,.2,0,.3-.2.5-.3,0,.3,0,.6,0,.9h0s0,0,0,0c.9-.6,1.5-1.5,1.7-2.6-.6.5-1.2,1-1.8,1.5-.1.1-.2.2-.4.4ZM997,500.3c-.4,0-.8.2-1.1.3-.2,0-.5,0-.6.3,0,.1.2.3.3.5.2.3.5.2.7,0,.3-.3.6-.6.9-.9,0-.2,0-.3-.2-.2ZM997.3,486.4c.3.6-.2,1,.1,1.5,1-1.7,1.8-3.4,1.9-5.4-.5.3-.6.6-.8,1-1.8,2.6-3.4,5.3-5.6,7.6-1.6,1.7-1.9,2.5-1,4.7.8,1.8,1.2,3.6,1.2,5.5,0,.2,0,.5.3.8.4-2.3,0-4.3-.8-6.3-.4-1.1-.9-2.3,0-3.3,1.6-1.9,3.3-3.8,4.7-6ZM999,488.3c-1,1-2.1,2-3.2,3,.7.4,1-.5,1.6-.4.2.3-.2.6.1,1,.9-1,1.4-2.2,1.5-3.6ZM996,497.9c.4-.3.8,1.1,1.3.1.3-.6.8-1,.9-1.9-.8.7-1.5,1.2-2.2,1.8Z"/>
      <path class="cls-1" d="M988.6,528.8c-.4-1.3-.4-2.3-.4-3.4,0-.5-.2-.9-.6-1.1-2-1.4-2-3.4-1.8-5.9.3,1.1.5,1.9.9,2.7.4.8,1.1,1.3,1.6,2,.6.9.8,1.9.9,2.9,0,.7,0,1.5,1.3.9.7-.4,1.3.3,1.7.8.4.6.2,1.1-.2,1.7-.5.6-1.2.8-1.9.4-.5-.3-1-.7-1.7-1.2.2,2,0,3.8-.9,5.6,0-.7-.1-1.3-.2-1.8-.2-1.5-1-2.4-2.5-2.7-.3,0-.6-.1-.9-.2-2.5-.7-2.9-1.2-2.9-3.8,0-1.9-.4-3.6-2.5-4.3-.6-.2-1.3-.9-1.1-1.6.2-.7,1-.4,1.6-.4,1.8,0,3,1.3,2.9,3.2,0,.9,0,1.8.2,2.7.2.7.5,1.4,1.6,1.6-1.1-1.6-.8-3.2-.7-4.8,0-1.1-.4-1.9-1.1-2.7,1.3,0,2.3.9,2.4,2.4,0,.8,0,1.6,0,2.4,0,1.5.5,2.6,1.9,3.1.9.3,1.8.7,2.7,1.6Z"/>
      <path class="cls-1" d="M966.1,534.2c-.5-1-.8-1.9-.9-2.9-.3-2.4,0-3.2,2.2-4,2-.7,2.3-1.5,2.2-3.6,0-.6-.1-1.3,0-1.9.1-1.5,1.1-2.5,2.8-2.7-1.7,1.3-1.6,2.8-1.4,4.4,0,1,0,2-.6,2.9.8.2,1.1-.3,1.3-.9.4-.9.4-1.9.3-3-.2-2.5,1.6-3.9,4-3.3.6.1.6.4.4.9-.3.5-.6,1-1.2,1.2-1.7.6-2.2,2.1-2.3,3.7-.2,3.6-.3,3.8-3.8,4.6-1.5.4-2.4,1.2-2.6,2.8,0,.5-.1,1.1-.2,1.8Z"/>
      <path class="cls-1" d="M963.1,510.2c1.2,2.5,2,5.1,0,7.6-.8,1.1-.6,2.2-.2,3.3.6,1.7.3,3.3-1,4.6-1,1.1-2.5,1-3.4,0-.7-.9-.4-2.4.7-3.1.4-.3.8-.4,1.2-.1.8.5,1-.1,1-.7,0-.3,0-.7-.1-1.1-.3-1.9-.2-3.6.8-5.3.9-1.6,1-3.3.8-5.1Z"/>
      <path class="cls-1" d="M991.9,517.2c.2,1.4,0,2.7-.2,4,0,.8-.2,1.8,1.2,1.1.8-.4,1.2.4,1.6.9.5.7.7,1.5.1,2.3-.8,1.1-2.4,1.3-3.3.3-1.2-1.2-1.7-2.7-1.1-4.4.6-1.7.5-3.1-.6-4.6-.9-1.3-.8-2.8-.4-4.3.2-.8.5-1.7.8-2.5.5.9,0,1.9.3,2.9,0,.2,0,.3,0,.5,0,.6.2,1.1.6,1.5,0,0,0,.1,0,.2,0,0,.1.2.2.3h0c.4.5,0,1.3.7,1.7Z"/>
      <path class="cls-1" d="M976.9,530.2c.8,1.2,1.7,2,2.8,2.6,1.3.7,1.7,1.6,1.5,3.1-.2,1.1-.6,2.1-.8,3.2-.1.6-.3,1.5,1,.9.8-.4,1.3.4,1.7,1,.5.7.6,1.5,0,2.2-.7.9-2,1.1-3,.5-1.3-.8-1.9-2.6-1.5-4.1.2-.7.4-1.3.6-1.9.5-1.6.4-2.9-1.1-4.1-.9-.7-1.2-1.8-1.1-3.3Z"/>
      <path class="cls-1" d="M976.3,530.3c0,1.5-.3,2.6-1.3,3.3-1.2,1-1.4,2.1-1.1,3.5.2.8.6,1.7.7,2.5.3,1.6-.2,2.9-1.5,3.9-.7.6-1.5.6-2.4.2-.7-.3-1.2-.9-1.1-1.7,0-.9.6-1.5,1.4-2,.3-.1.5-.2.8,0,1.2.7,1.1-.3.9-.9-.2-.9-.5-1.8-.7-2.6-.5-2,0-2.8,1.7-3.9.5-.3.9-.6,1.3-1,.4-.3.7-.7,1.2-1.3Z"/>
      <path class="cls-1" d="M959.8,506.7c.7.5,1,1,.9,2-.1,1.5.3,3,.8,4.5.6,1.8,0,3.7-1.4,4.7-.8.6-1.6.5-2.3,0-.7-.4-1.1-.9-1-1.8.1-.9.6-1.6,1.5-2.1.2,0,.4-.1.6,0,1.4.7,1.2-.4,1-1-.2-1.1-.5-2.1-.8-3.1-.2-1.1-.3-2.2.4-3.2.1,0,.3,0,.4.1Z"/>
      <path class="cls-1" d="M992.6,507.7c0-.2.1-.3.2-.5.2-.1.3-.2.5-.3,0,0,.1,0,.2-.1,1.5,0,1.1,1.1,1.1,1.9,0,1.4-.6,2.7-.9,4.1-.3,1.4-.2,1.5,1.1,1.2.2,0,.4,0,.6,0,.3.2.5.5.8.8.8,1,.8,2,.1,2.7-.9.9-2.1,1-3.1.2-.2-.1-.3-.2-.5-.4,0,0-.1-.2-.2-.3,0,0,0-.1-.1-.2-.2-.6-.5-1.3-.7-1.9,0-.3,0-.6,0-1,.1-.6.3-1.2.4-1.8,0,0,0,0,0-.1v-.5c.2-.2.2-.3.2-.5.4-1.1.4-2.2.2-3.4Z"/>
      <path class="cls-1" d="M967.5,518.9c.3,1.9.3,3.8-1.5,5.1-.8.6-.9,1.4-.9,2.4,0,1.2-.4,2.2-1.3,2.9-.7.6-1.5.7-2.3,0-.5-.5-.8-1.1-.3-1.8.5-.7,1.1-1.3,2.1-.6.4.3.7,0,.7-.4.1-.5.2-1,.3-1.5.1-.8.4-1.7,1-2.3,1.1-1,1.8-2.3,2.2-3.8Z"/>
      <path class="cls-1" d="M969.7,507c.9,0,1.7.3,2.5.7.7.3.5.7,0,1-1.2.9-3.4.7-4.6-.3-.4-.3-.4-.6,0-.8.7-.4,1.4-.6,2.1-.6Z"/>
      <path class="cls-1" d="M965.2,516.7c.5,1.4,1.2,2.5.5,3.8-.3.5-.8.8-1.4.6-.5-.1-.8-.5-.8-.9,0-.6.3-1.2,1.2-1,.5,0,.5-.3.5-.6,0-.5-.2-1,0-1.9Z"/>
      <path class="cls-1" d="M987.9,517.3c.4.4.2.8.3,1.1,0,.5,0,.9.7.8.6,0,.8.4.9.9,0,.4,0,.8-.5,1-.5.3-1,.2-1.4-.3-.7-.7-.7-1.6,0-3.5Z"/>
      <path class="cls-1" d="M985.9,508c-1.4,1.7-3.9,1.7-4.9,0,1.6,1.1,3.3.8,4.9,0Z"/>
      <path class="cls-1" d="M979,522.9c-1.5,1-3.2,1-4.5,0h4.5Z"/>
      <path class="cls-1" d="M986.6,526c-1.5-.6-1.5-.7-.7-2,.3-.4.1-.7-.2-.9-.3-.2-.6-.2-.8.1-.3.3-.2.7.2.9.9.4,1.1,1.2,1.5,1.9Z"/>
      <path class="cls-1" d="M968.1,524.2c.2,1.2-.4,1.6-1.4,2.1.4-.9.8-1.4,1.4-2.1Z"/>
      <path class="cls-2" d="M992.5,517.1c0,0,.1.2.2.3,0,0-.1-.2-.2-.3Z"/>
      <path class="cls-2" d="M991,515.2c0,0,.1.2.2.3,0,0-.1-.2-.2-.3Z"/>
      <path class="cls-1" d="M957.7,501.9c0-.1-.1-.3,0-.3.1-.1.3,0,.4,0-.1,0-.2.2-.3.3Z"/>
      <path class="cls-1" d="M991.3,507c0,.2-.2.3-.3.2-.2-.1,0-.2.1-.3,0,0,.1.1.2.2Z"/>
      <path class="cls-1" d="M975.8,497.3c0,0,0-.1,0-.1-.2-.5-1.1-.9-.4-1.6.3-.1.4-.5.9-.4-.5.8,0,1.5,0,2.2,0,0,0,0-.1,0-.1,0-.2,0-.3-.1Z"/>
      <path class="cls-1" d="M976.2,497.3c0,0,0,.2,0,.3-.2,0-.2,0-.2-.2,0,0,0,0,.1,0Z"/>
      <path class="cls-1" d="M976.4,488.6c-.2.5-.4,0-.5,0-.3-.5-.5-1-.8-1.4-.1-.2-.3-.5,0-.7.3-.2.6-.7,1.1-.2-.7.7,0,1.5,0,2.2,0,0,0,.2.1.2h0Z"/>
      <path class="cls-2" d="M976.4,488.6c0,0,0-.2-.1-.2,0,0,0,.2.1.2Z"/>
    </g>
  </g>
</svg>