<?xml version="1.0" encoding="UTF-8" standalone="no"?>
<!-- Created with Inkscape (http://www.inkscape.org/) -->

<svg
   version="1.1"
   id="svg2"
   width="64.26667"
   height="84.90667"
   viewBox="0 0 64.26667 84.90667"
   sodipodi:docname="OdinLogo.eps"
   xmlns:inkscape="http://www.inkscape.org/namespaces/inkscape"
   xmlns:sodipodi="http://sodipodi.sourceforge.net/DTD/sodipodi-0.dtd"
   xmlns="http://www.w3.org/2000/svg"
   xmlns:svg="http://www.w3.org/2000/svg">
  <defs
     id="defs6" />
  <sodipodi:namedview
     id="namedview4"
     pagecolor="#ffffff"
     bordercolor="#000000"
     borderopacity="0.25"
     inkscape:showpageshadow="2"
     inkscape:pageopacity="0.0"
     inkscape:pagecheckerboard="0"
     inkscape:deskcolor="#d1d1d1" />
  <g
     id="g8"
     inkscape:groupmode="layer"
     inkscape:label="ink_ext_XXXXXX"
     transform="matrix(1.3333333,0,0,-1.3333333,0,84.906667)">
    <g
       id="g10"
       transform="scale(0.1)">
      <path
         d="m 165.992,536.816 c -0.265,0.477 -0.543,0.969 -0.82,1.461 -0.25,-0.254 -0.75,-0.562 -0.707,-0.75 0.121,-0.531 0.465,-1.015 0.719,-1.515 0.254,0.25 0.507,0.504 0.808,0.804 z m -5.023,-4.23 c -0.27,0.297 -0.516,0.57 -0.762,0.848 -0.258,-0.266 -0.512,-0.532 -0.769,-0.797 0.398,-0.254 0.792,-0.508 1.191,-0.762 0.125,0.262 0.25,0.527 0.34,0.711 z m 172.394,-13.469 c -5.109,16.844 -17.375,27.391 -26.425,24.735 8.957,-8.383 17.691,-16.563 26.425,-24.735 z m -97.738,23.387 c 3.543,-10.305 7.672,-10.731 13.039,-1.051 3.645,6.567 7.84,12.836 11.887,19.172 10.539,16.508 10.015,18.16 -8.551,25.02 -1.824,0.675 -3.879,0.722 -5.828,1.058 -10.922,6.559 -17.176,-4.23 -25.516,-7.066 -5.285,-1.797 -5.551,-5.711 -2.402,-10.352 5.969,-8.805 11.598,-17.84 17.371,-26.781 z m -9.918,-74.039 c 1.188,-1.246 2.375,-2.492 3.563,-3.738 2.867,-3.274 5.714,-6.559 8.597,-9.817 2.09,-2.359 4.551,-3.613 7.004,-0.777 6.484,7.496 12.793,15.14 19.152,22.738 1.922,2.301 0.766,4.254 -0.57,6.395 -13.375,21.464 -21.918,22.461 -39.504,4.515 -10.691,-8.097 -10.668,-8.371 1.758,-19.316 z m -72.684,54.297 c 2.34,2.929 7.719,4.515 4.875,10.039 -4.613,-0.696 -5.824,-4.293 -7.675,-7.238 -0.735,-1.161 -2.289,-3.11 -2.063,-3.348 1.649,-1.719 3.352,-0.828 4.863,0.547 z m 171.7,-73.149 c 7.601,-3.515 15.312,-6.82 22.765,-10.629 4.649,-2.375 9.535,-5.55 9.032,-11.543 -0.442,-5.222 -5.247,-7.605 -9.438,-10.035 -2.703,-1.566 -6.352,-1.422 -8.816,-5.461 6.601,-3.242 13.879,-5.218 19.418,-10.285 4.539,-4.148 8.093,-8.847 9.808,-14.746 1.348,-4.629 2.957,-10.203 -0.566,-13.699 -3.258,-3.227 -7.301,1.172 -10.809,2.523 -20.508,7.903 -41.219,8.555 -62.23,2.379 -23.094,-6.789 -33.356,-1.094 -40.625,22.5 -0.457,1.477 -0.961,2.942 -1.582,4.836 -5.344,-4.777 -2.965,-10.73 -3.856,-15.933 -0.582,-3.391 -2.215,-6.551 -5.89,-6.418 -3.457,0.128 -5.606,2.851 -5.77,6.531 -0.223,5.074 0.496,10.308 -3.09,16.355 -2.511,-6.441 -4.086,-11.957 -6.707,-16.918 -6.637,-12.582 -17.625,-17.047 -30.836,-12.64 -24.074,8.019 -47.902,8.519 -71.14,-2.539 -8.899,-4.235 -11.032,0.578 -10.801,7.433 0.312,9.324 5.293,16.735 12.933,21.871 5.239,3.524 11.09,6.133 17.067,9.364 -1.41,0.976 -2.641,1.925 -3.969,2.722 -5.625,3.379 -14.226,4.668 -13.851,13.063 0.363,8.051 8.972,9.437 14.609,12.469 13.348,7.179 27.898,11.585 43.109,16.32 -16.218,4.226 -47.797,-6.875 -83.269,-28.715 -4.6682,28.809 0.679,39.062 26.957,49.961 9.472,3.926 19.394,6.777 32.113,11.152 -18.574,3.465 -32.582,-1.914 -46.676,-8.133 4.418,35.977 49.676,74.305 83.43,80.993 -7.516,-6.641 -16.781,-7.977 -22.582,-14.453 -3.656,-1.985 -10.254,-4.415 -7.637,-8.254 3,-4.403 6.934,1.871 10.332,3.828 0.332,0.195 0.574,0.551 0.856,0.832 22.918,4.441 29.89,0.172 39.476,-25.5 0.742,20.875 -0.457,39.39 -15.66,53.543 -4.492,4.183 -2.125,5.734 1.383,7.699 11.508,6.434 23.07,12.769 34.531,19.277 3.891,2.211 7.25,2.075 11.164,-0.242 10.992,-6.508 22.235,-12.594 33.309,-18.961 3.039,-1.75 7.094,-3.39 1.957,-7.625 -16.91,-13.937 -16.856,-32.855 -15.746,-53.937 8.297,20.457 11.375,30.722 43.101,24.574 -3.386,7.406 -4.761,8.496 -19.043,15.101 24.516,4.442 69.391,-37.511 81.418,-77.855 -15.019,7.562 -29.394,12.262 -45.449,8.219 9.082,-3.11 18.285,-5.91 27.223,-9.395 26.957,-10.5 32.687,-20.547 29.129,-51.015 -17.535,11.156 -34.379,23.433 -56.067,24.007 -1.75,4.801 -6.383,4.055 -10.027,5.196 -14.16,4.425 -29.137,3.418 -43.5,6.504 -0.234,3.007 4.445,6.171 0.828,8.675 -3.883,2.684 -5.305,-2.195 -7.187,-4.207 -6.825,-7.285 -13.567,-14.675 -19.848,-22.425 -4.359,-5.379 -7.652,-5.598 -12.113,-0.145 -6.571,8.023 -13.543,15.731 -20.629,23.305 -1.52,1.617 -3.063,6.14 -6.364,2.847 -2.695,-2.683 0.508,-5.179 2.184,-7.117 7.848,-9.058 16.227,-17.676 23.731,-27 5.144,-6.39 8.816,-6.172 14.16,-0.246 8.234,9.141 15.183,19.567 25.558,26.668 1.336,0.594 3.305,2.078 3.914,1.645 13.914,-9.805 30.864,-10.891 46.278,-16.321"
         style="fill:#967c49;fill-opacity:1;fill-rule:nonzero;stroke:none"
         id="path12" />
      <path
         d="m 272.68,345.91 c -0.153,-0.269 -0.5,-0.617 -0.43,-0.805 0.441,-1.167 1.063,-1.199 1.617,-0.082 0.09,0.18 -0.152,0.641 -0.371,0.821 -0.172,0.144 -0.535,0.054 -0.816,0.066 z m -52.403,-17.289 c -2.668,-10.047 -9.265,-13.859 -18.324,-16.887 -11.465,-3.832 -16.824,-19.82 -11.953,-36.504 2.906,-9.953 2.324,-14.878 -8.82,-16.644 -6.797,-1.078 -11.043,-7.168 -15.641,-11.824 -6.105,5.304 3.586,12.437 -2.656,16.57 -4.57,3.027 -10.344,4.172 -15.192,6.856 -4.293,2.378 -8.98,4.933 -10.23,12.039 11.125,-3.981 21.238,-8.536 33.137,-4.243 -18.973,8.336 -37.309,17.079 -44.559,38.305 -2.18,6.383 -3.941,12.77 -1.437,21.785 17.089,-18.277 36.226,-23.152 58.164,-12.015 -15.793,0.879 -31.539,1.726 -44.914,11.73 1.457,2.547 3.875,1.926 5.445,1.41 21.465,-7.043 42.375,-3 63.398,2.391 10.145,2.598 14.77,10.492 19.434,18.238 14.152,23.488 17.238,23.289 31.699,0.141 13.719,-21.957 37.199,-22.856 59.527,-24.481 10.215,-0.746 20.079,3.825 31.106,7.399 -9.27,-12.129 -11.016,-12.696 -47.266,-16.391 14.262,-11.266 30.758,-8.582 57.496,9.356 3.539,-11.692 -1.082,-25.75 -11.418,-37.368 -9.175,-10.312 -22.835,-13.367 -36.453,-21.531 14.469,-3.074 24.692,1.231 36.743,5.641 -3.36,-7.664 -8.418,-11.082 -13.786,-14.051 -13.222,-7.309 -13.254,-7.25 -13.496,-21.492 -8.668,6.433 -16.191,13.457 -26.722,14.867 -4.77,0.641 -2.106,3.871 -1.215,6.367 3.574,10.047 4.523,20.172 1.043,30.524 -2.172,6.461 -5.879,12.476 -12.426,13.484 -10.859,1.668 -14.406,8.395 -16.137,17.687 -0.41,2.215 -0.894,4.778 -4.172,5.973 0,-8.414 -0.019,-16.59 0.008,-24.765 0.024,-7.235 -0.726,-13.7 10.817,-8.825 7.714,3.258 15.074,-11.054 11.128,-21.031 -6.546,-16.57 -37.39,-29.34 -53.542,-22.059 -8.754,3.95 -17.364,8.168 -23.665,15.852 -5.296,6.461 -6.793,13.289 -3.019,21.117 3.641,7.547 8.969,8.156 15.781,4.645 2.156,-1.114 4.211,-0.199 4.445,2.164 0.844,8.461 2.692,17.051 -2.328,25.57"
         style="fill:#967c49;fill-opacity:1;fill-rule:nonzero;stroke:none"
         id="path14" />
      <path
         d="m 238.672,165.195 c -5.172,-21.828 -17.828,-32.218 -37.133,-37.34 -18.141,-4.812 -25.316,-17.554 -23.613,-36.5269 1.512,-16.8203 -0.645,-32.7304 -10.102,-47.0664 -9.011,-13.6601 -27.996,-17.6289 -41.152,-8.832 -9.547,6.3789 -12.246,20.418 -5.188,28.332 3.973,4.4531 9.481,7.8946 14.477,2.9375 3.633,-3.6054 5.707,-7.7344 11.469,-4.3594 5.629,3.3008 9.039,8.1954 8.527,14.7266 -0.367,4.7031 -1.816,9.3867 -3.246,13.9297 -8.313,26.4419 -0.832,41.1679 25.527,49.6489 4.172,1.339 8.492,2.234 12.782,3.179 20.789,4.606 28.589,16.117 25.113,37.278 -0.574,3.488 -1.395,6.929 -2.406,11.902 17.496,-5.934 34.132,-7.828 52.039,0.473 -0.676,-7.297 -1.485,-13.34 -1.743,-19.407 -0.734,-17.285 5.895,-25.804 22.821,-29.742 9.332,-2.168 18.734,-3.988 27.289,-8.738 13.504,-7.5 19.117,-18.766 16.094,-33.961 -1.555,-7.8165 -4.11,-15.4415 -5.512,-23.2774 -1.25,-7 1.863,-12.4063 8.074,-15.9844 5.707,-3.2852 7.793,1.0117 11.578,4.207 6.488,5.4805 12.063,0.7031 15.895,-4.832 6.492,-9.3789 0.941,-23.8399 -10.629,-28.7383 -13.305,-5.6367 -28.895,-1.0625 -37.059,11.1797 -9.039,13.5547 -11.617,28.6211 -10.023,44.6562 2.074,20.9372 -5.703,34.8162 -25.742,40.0512 -16.809,4.39 -27.739,13.113 -33.157,29.332 -0.586,1.754 -2.207,3.16 -4.98,6.972"
         style="fill:#967c49;fill-opacity:1;fill-rule:nonzero;stroke:none"
         id="path16" />
      <path
         d="m 21.5781,516.656 c -0.2929,-0.25 -0.5859,-0.504 -0.8789,-0.754 0.2539,-0.293 0.4922,-0.797 0.7656,-0.816 0.2696,-0.023 0.5821,0.441 0.875,0.691 -0.2539,0.293 -0.5078,0.586 -0.7617,0.879 z m 1.2774,-14.824 c 10.289,-19.078 11.2109,-19.644 23.9804,-13.539 -8.9492,3.672 -13.1015,13.367 -23.9804,13.539 z m 32.9648,14.781 c -12.8633,12.141 -25.7226,24.282 -38.5859,36.418 -0.0078,-10.351 3.5351,-18.261 7.8594,-25.843 0.8593,-1.504 2.5976,-4.911 3.6562,-3.34 6.3242,9.379 8.8906,-1.254 12.9219,-2.379 4.3594,-1.219 7.2148,-6.11 14.1484,-4.856 z M 31.207,573.609 c 3.8828,0.559 4.4102,-2.992 5.8399,-5.019 12.2265,-17.328 25.0937,-34.184 39.7695,-49.473 8.5313,-8.883 10.0469,-18.719 7.2383,-29.808 -1.2656,-5.004 -3.5234,-9.754 -5.2617,-14.645 -7.4766,-21.031 -10.6172,-42.25 -2.6211,-67.363 0,9.226 -0.1797,15.023 0.0351,20.804 0.6368,17.321 3.8594,33.977 11.1133,49.954 6.293,13.871 10.6602,29.027 -2.1601,41.308 -18.6758,17.903 -32.6133,39.254 -47.6211,59.934 -7.6211,10.5 -13.2696,22.504 -23.2266,32.687 -0.3828,-16.929 8.0234,-39.633 17.2188,-48.078 3.0898,3.309 -3.6875,6.336 -0.3243,9.699 z M 43.043,455.676 c 0.8672,-0.821 1.7578,-1.332 2.7539,-0.176 -0.5352,0.441 -1.0664,0.883 -1.6016,1.32 -4.1015,7.493 -10.957,11.879 -18.5156,15.586 5.9101,-5.48 1.4101,-21.152 17.3633,-16.73 z M 61.1523,387.91 c -1.5976,0.985 -3.1914,1.973 -4.789,2.953 -1.375,0.828 -2.7461,1.653 -4.1211,2.481 -3.0938,2.957 -6.1836,5.914 -9.2383,8.84 2.4219,4.629 8.2695,-0.075 10.3399,5.109 -4.5118,7.676 -13.5899,11.121 -19.043,18.215 2.8476,4.781 4.8398,1.164 7.1797,-0.633 3.8672,-2.973 6.9453,-7.762 12.9883,-6.023 0.207,-0.286 0.4453,-0.579 0.6796,-0.875 -0.3164,-0.047 -0.6367,-0.098 -0.9531,-0.145 0.1953,0.293 0.3906,0.586 0.582,0.883 -1.0703,0.969 -2.1406,1.937 -3.2109,2.906 1.0664,0.918 2.1367,1.84 3.2031,2.762 1.0196,0.191 2.043,0.39 3.0664,0.586 -0.0976,0.375 -0.0781,0.969 -0.3125,1.094 -7.3164,3.925 -14.914,7.292 -23.207,8.246 -3.6797,0.421 -5.9844,1.082 -5.6953,5.609 3.3047,1.066 7.1602,-2.043 10.2031,1.367 -2.0156,4.848 -5.7617,8.262 -9.8633,11.379 -4.6093,7.484 -9.3359,14.938 -11.4179,23.613 -1.043,4.352 -5.8985,9.176 3.2265,11.95 4.7969,1.457 0.2383,6.328 -1.2617,8.953 -4.6914,8.226 -9.1133,16.476 -11.66796,25.73 5.33206,2.047 7.28906,-4.84 12.98046,-1.789 C 14.2969,538.012 3.67578,553.738 0,574.027 10.7148,568.262 16.2969,558.344 29.1406,552.344 16.6484,579.57 5.73828,604.41 2.96094,633.148 c 4.82422,-1.996 6.4414,-5.57 8.57036,-8.457 26.3281,-35.671 51.4765,-72.277 83.914,-103.003 9.7147,-9.204 10.8437,-20.606 6.8867,-33.176 -5.2578,-16.703 -13.4609,-32.403 -15.3515,-50.285 -2.8438,-26.891 2.3672,-52.348 13.1565,-79.864 -12.3401,9.149 -17.6331,21.825 -29.5901,26.899 -3.7578,7.718 -5.2774,18.199 -18.1406,14.812 0.1875,-6.148 10.3007,-4.906 8.746,-12.164"
         style="fill:#967c49;fill-opacity:1;fill-rule:nonzero;stroke:none"
         id="path18" />
      <path
         d="m 434.387,461.125 c 4.113,3.391 7.949,-11.488 12.929,-1.359 2.778,5.644 7.918,10.261 8.586,19.175 -8.242,-6.828 -14.879,-12.324 -21.515,-17.816 z m 30.008,96.371 c -10.422,-9.871 -20.844,-19.742 -31.711,-30.039 7.359,-3.582 10.281,5.051 15.707,3.856 2.277,-3.075 -2.008,-6.211 1.05,-9.598 8.637,10.254 13.817,21.742 14.954,35.781 z m -16.805,19.453 c 3.371,-5.715 -2.059,-9.64 1.465,-14.898 9.625,17.429 17.906,33.89 18.98,54.25 -4.851,-2.602 -6.289,-6.465 -8.469,-9.637 -17.859,-25.988 -34.257,-53.141 -56.16,-76.039 -16.191,-16.937 -18.965,-25.434 -9.734,-46.863 7.547,-17.528 11.711,-35.571 11.723,-54.621 0,-2.434 -0.442,-5.161 2.835,-8.082 4.286,23.011 0.422,43.371 -7.625,63.32 -4.39,10.887 -8.679,22.68 -0.273,32.992 15.832,19.418 32.652,38.027 47.258,59.578 z m -3.156,-139.121 c -3.825,-0.965 -7.629,-2.027 -11.481,-2.855 -2.297,-0.493 -5.32,-0.223 -5.84,-2.95 -0.254,-1.32 1.707,-3.171 2.864,-4.632 2.199,-2.774 5.089,-2.485 7.328,-0.512 3.242,2.848 5.996,6.25 8.953,9.418 0.461,1.781 0.504,3.066 -1.824,1.531 z m -9.457,52.637 c -1.145,-0.395 -3.653,0.512 -2.946,-1.66 0.461,-1.41 2.692,-0.641 4.028,0.285 1.539,0.93 3.078,1.855 4.617,2.785 -0.211,-3.008 -0.422,-6.012 -0.633,-9.008 l -0.602,0.188 0.489,0.039 c 9.179,6.097 14.648,14.754 16.828,26.011 -6.043,-5.007 -12.082,-10.011 -18.121,-15.019 -1.219,-1.207 -2.442,-2.414 -3.66,-3.621 z M 388.961,384.66 c 8.941,30.848 9.262,61.309 -3.719,91.297 -2.683,6.203 -5.117,12.594 -6.84,19.117 -2.656,10.063 -2.597,20.332 5.414,28.039 35.582,34.211 63.047,74.996 93.688,113.711 -1.723,-27.515 -11.984,-52.476 -25.289,-79.367 13.297,4.504 18.617,15.309 29.805,21.383 -4.895,-20.531 -13.137,-37.395 -23.184,-53.449 6.07,-4.539 8.848,2.398 14.609,2.925 -1.929,-11.367 -7.586,-20.515 -13.093,-29.761 -2.036,-3.418 -7.883,-8.481 2.796,-7.766 5.036,0.34 2.844,-3.543 2.282,-5.676 -3.215,-12.117 -8.789,-23.004 -16.907,-32.675 -1.957,-2.333 -8.902,-6.36 1.321,-8.223 6.304,-1.152 1.797,-5.469 0.308,-8.192 -5.804,-10.632 -15.953,-17.394 -22.902,-24.371 -1.25,-8.183 15.809,4.879 7.844,-9.75 -5.426,3.239 -11.012,2.61 -17.047,1.766 -6.602,-0.926 -6.703,-4.055 -7.621,-9.688 -0.762,-4.656 -6.488,-8.496 -10.012,-12.699 l -0.359,-0.363 c -4.996,-2.715 -6.746,-9.285 -12.785,-10.762 -0.672,0.571 -1.344,1.137 -2.016,1.707 1.234,4.266 2.473,8.532 3.707,12.797"
         style="fill:#967c49;fill-opacity:1;fill-rule:nonzero;stroke:none"
         id="path20" />
      <path
         d="m 360.273,152.863 c -3.722,13.317 -4.289,23.489 -4.265,33.727 0.012,4.676 -2.281,8.914 -5.848,11.402 -20.285,14.176 -20.402,34.492 -17.543,59.449 3.285,-11.152 4.571,-19.402 8.531,-26.793 4.059,-7.578 10.922,-12.675 15.7,-19.574 6.132,-8.863 8.175,-18.832 9.441,-29.281 0.848,-6.98 0.949,-15.184 12.774,-8.652 7.039,3.886 12.796,-2.543 16.726,-8.219 3.914,-5.656 2.383,-11.414 -1.805,-16.527 -5.289,-6.454 -12.05,-8.004 -19.254,-4.301 -5.144,2.644 -9.589,6.648 -16.796,11.801 2.211,-20.473 0.504,-38.325 -8.899,-56.4653 -0.812,7.0433 -1.39,12.6563 -2.117,18.2503 -1.922,14.808 -10.07,23.879 -24.832,26.863 -3.129,0.633 -6.227,1.453 -9.301,2.324 -25.305,7.203 -29.066,12.156 -29.496,38.469 -0.309,18.973 -4.191,35.594 -24.851,43.324 -6.329,2.367 -12.547,8.863 -10.833,15.684 1.727,6.851 10.368,3.933 15.829,4.136 17.5,0.653 29.777,-13.199 28.703,-32.187 -0.524,-9.254 -0.895,-18.426 1.718,-27.34 1.993,-6.797 4.59,-13.539 15.79,-16.035 -10.688,16.074 -7.61,31.973 -7.149,47.559 0.313,10.566 -4.117,19.062 -11.25,26.984 13.426,-0.383 22.567,-9.344 23.625,-23.746 0.578,-7.899 -0.66,-15.922 -0.976,-23.891 -0.579,-14.629 4.625,-25.578 19.148,-31.109 8.789,-3.348 17.707,-6.625 27.23,-15.852"
         style="fill:#967c49;fill-opacity:1;fill-rule:nonzero;stroke:none"
         id="path22" />
      <path
         d="m 135.109,98.6836 c -5.164,10.4574 -8.214,19.4614 -9.23,28.8204 -2.574,23.762 0.543,32.332 21.797,40.078 19.551,7.125 23.203,14.676 22.195,35.871 -0.305,6.371 -1.305,12.781 -0.887,19.102 1.008,15.093 10.707,25.355 27.637,27.398 -16.625,-12.504 -15.57,-28.348 -14.469,-44.469 0.672,-9.855 0.418,-19.847 -5.941,-29.035 8.273,-1.929 10.668,3.418 12.695,8.543 3.758,9.492 3.758,19.438 3.114,29.504 -1.579,24.539 16.281,39.274 39.847,33.465 5.809,-1.434 6,-4.293 3.696,-8.59 -2.696,-5.023 -6.141,-9.742 -11.54,-11.746 -17.39,-6.449 -22.066,-20.539 -23.16,-37.016 -2.39,-36.066 -3.332,-37.55 -38.371,-45.886 -15.168,-3.61 -23.672,-12.344 -25.543,-27.668 -0.66,-5.407 -1.094,-10.84 -1.84,-18.3714"
         style="fill:#967c49;fill-opacity:1;fill-rule:nonzero;stroke:none"
         id="path24" />
      <path
         d="m 106,338.941 c 12.387,-25.382 20.277,-50.769 0.852,-76.347 -8.0981,-10.668 -5.563,-21.86 -1.539,-33.098 6.242,-17.445 3.406,-33.144 -9.5864,-46.476 -10.2852,-10.551 -24.6407,-9.926 -33.5313,0.949 -7.2461,8.871 -3.9883,23.761 6.918,31.457 3.8398,2.707 7.8672,3.847 12.2851,1.246 8.4571,-4.977 9.6641,1.262 10.2383,7.109 0.3399,3.473 -0.6875,7.114 -1.3008,10.645 -3.25,18.605 -2.3007,36.293 7.7618,53.254 9.3553,15.765 9.6403,33.445 7.9023,51.261"
         style="fill:#967c49;fill-opacity:1;fill-rule:nonzero;stroke:none"
         id="path26" />
      <path
         d="m 393.719,268.766 c 1.953,-13.586 -0.071,-26.957 -1.633,-40.434 -0.91,-7.84 -2.27,-17.562 12.082,-10.898 7.566,3.511 12.344,-3.832 16.223,-9.231 5.183,-7.219 7.289,-15.09 1.382,-23.223 -8.054,-11.085 -23.574,-12.753 -33.402,-3.109 -12.406,12.18 -17.305,27.293 -11.48,43.68 5.98,16.828 5.093,31.008 -5.875,45.84 -9.317,12.589 -7.676,28.089 -4.063,42.695 2.09,8.449 5.492,16.574 8.309,24.844 4.918,-9.157 -0.571,-19.266 2.617,-28.578 0.176,-1.539 0.351,-3.079 0.531,-4.618 0.785,-5.586 1.863,-11.058 5.891,-15.406 0.008,-0.609 0.222,-1.137 0.644,-1.574 0.645,-0.988 1.285,-1.977 1.93,-2.965 l -0.023,-0.101 c 3.902,-4.989 -0.34,-13.278 6.867,-16.922"
         style="fill:#967c49;fill-opacity:1;fill-rule:nonzero;stroke:none"
         id="path28" />
      <path
         d="m 243.078,138.234 c 8.223,-12.382 17.363,-19.746 27.985,-25.664 13.167,-7.336 17.496,-16.0192 14.625,-30.7809 -2.122,-10.9141 -6.301,-21.4258 -8.469,-32.3321 -1.258,-6.3203 -3.11,-14.9453 9.594,-9.1211 8.328,3.8204 13.015,-3.832 17.082,-9.5859 4.976,-7.0352 6.296,-14.7383 0.5,-22.15234 -7.106,-9.089848 -20.5,-11.01172 -30.11,-4.53516 -12.558,8.457 -19.226,25.8203 -15.441,41.1367 1.625,6.5664 4.008,12.9375 5.953,19.4258 4.707,15.7148 3.773,29.4727 -10.742,40.648 -9.367,7.215 -12.196,18.2 -10.977,32.961"
         style="fill:#967c49;fill-opacity:1;fill-rule:nonzero;stroke:none"
         id="path30" />
      <path
         d="m 237.965,137.715 c 0.484,-14.793 -2.902,-25.86 -12.539,-33.406 -12.196,-9.5473 -14.231,-21.4731 -10.903,-35.2348 2.051,-8.4922 5.543,-16.6679 7.211,-25.2148 3.082,-15.8321 -2.152,-29.0742 -14.711,-39.21487 -7.359,-5.94141 -15.41,-5.80078 -23.574,-1.74219 -6.941,3.44532 -11.851,8.83596 -11.16,16.85156 0.762,8.8477 5.871,15.4922 13.641,19.9219 2.508,1.4336 5.148,2.3125 7.941,0.8125 12.34,-6.6289 10.68,2.543 9.399,9.0273 -1.774,8.961 -5.309,17.5586 -7.418,26.4727 -4.672,19.7383 -0.743,28.1597 16.73,38.6567 4.754,2.855 9.305,6.195 13.441,9.878 3.774,3.364 6.86,7.497 11.942,13.192"
         style="fill:#967c49;fill-opacity:1;fill-rule:nonzero;stroke:none"
         id="path32" />
      <path
         d="m 72.3984,373.785 c 7.3477,-4.629 10.2422,-10.465 9.3789,-19.844 -1.4062,-15.281 3.1875,-29.996 7.9493,-44.523 5.7461,-17.52 -0.6485,-37.125 -14.4297,-47.203 -7.8711,-5.762 -15.5586,-5.102 -23.4531,-0.434 -6.6524,3.938 -11.2422,9.364 -10.1719,17.504 1.2148,9.262 6.3515,16.278 14.5078,20.805 1.5625,0.863 4.25,1.156 5.7734,0.406 14.086,-6.945 11.6055,3.621 10.4024,10.492 -1.8516,10.582 -5.4297,20.848 -7.7774,31.36 -2.4922,11.144 -2.8359,22.234 3.6953,32.441 1.375,-0.336 2.75,-0.672 4.125,-1.004"
         style="fill:#967c49;fill-opacity:1;fill-rule:nonzero;stroke:none"
         id="path34" />
      <path
         d="m 400.809,363.078 c 0.511,1.516 1.027,3.027 1.543,4.539 1.543,1.11 3.086,2.219 4.628,3.324 0.797,0.223 1.411,0.692 1.84,1.399 14.887,0.336 10.735,-11.457 10.77,-18.805 0.066,-14.015 -6.024,-27.086 -8.793,-40.715 -2.867,-14.105 -1.988,-14.918 11.269,-12.293 1.899,0.375 3.961,-0.066 5.95,-0.129 2.531,-2.496 5.332,-4.777 7.55,-7.527 7.805,-9.668 8.149,-19.566 1.204,-26.859 -8.926,-9.371 -20.559,-10.293 -30.793,-2.442 -1.559,1.2 -3.118,2.403 -4.672,3.602 -0.657,0.926 -1.313,1.851 -1.969,2.777 -0.082,0.781 -0.418,1.43 -1.008,1.946 -2.363,6.406 -4.726,12.816 -7.094,19.222 -0.004,3.172 -0.007,6.344 -0.015,9.52 1.476,5.859 2.957,11.718 4.433,17.578 0.461,0.285 0.641,0.695 0.536,1.226 0.398,1.653 0.796,3.305 1.195,4.961 0.426,1.703 0.855,3.411 1.285,5.118 3.793,10.992 4.207,22.195 2.141,33.558"
         style="fill:#967c49;fill-opacity:1;fill-rule:nonzero;stroke:none"
         id="path36" />
      <path
         d="m 149.91,251.125 c 3.25,-19.477 3.242,-38.051 -14.801,-51.309 -8.035,-5.906 -9.226,-14.496 -8.543,-23.566 0.918,-12.156 -3.578,-21.828 -13.109,-29.156 -7.394,-5.684 -15.1953,-7.301 -22.6797,-0.281 -5.3593,5.031 -8.3945,11.203 -3.3515,17.992 5.1211,6.883 10.7539,13.265 20.6482,6.265 4.391,-3.105 6.555,0.567 7.426,4.36 1.152,5.035 1.867,10.175 2.695,15.285 1.364,8.39 3.629,16.676 9.879,22.601 11.043,10.477 18.086,22.914 21.836,37.809"
         style="fill:#967c49;fill-opacity:1;fill-rule:nonzero;stroke:none"
         id="path38" />
      <path
         d="m 171.426,370.617 c 9.469,0.321 17.125,-2.773 24.609,-6.594 6.637,-3.382 5.32,-6.503 0.145,-10.199 -12.188,-8.695 -34.184,-7.406 -45.739,2.688 -3.632,3.172 -3.914,5.613 0.395,8.215 6.605,3.98 13.625,6.359 20.59,5.89"
         style="fill:#967c49;fill-opacity:1;fill-rule:nonzero;stroke:none"
         id="path40" />
      <path
         d="m 126.891,273.395 c 5.441,-14.028 12.453,-25.172 4.523,-38.219 -3.219,-5.293 -7.648,-8.196 -13.984,-6.488 -4.688,1.261 -8.168,4.675 -7.578,9.425 0.761,6.141 3.336,11.778 11.527,10.465 5.273,-0.844 4.582,3.051 4.652,6.106 0.117,5.129 -1.898,10.242 0.86,18.711"
         style="fill:#967c49;fill-opacity:1;fill-rule:nonzero;stroke:none"
         id="path42" />
      <path
         d="m 353.508,267.34 c 3.785,-3.895 2.344,-7.719 2.758,-11.09 0.566,-4.598 0.304,-8.527 7.261,-7.703 5.578,0.664 8.399,-3.969 9.325,-8.996 0.781,-4.235 -0.762,-7.992 -4.829,-9.973 -5.195,-2.527 -9.941,-1.738 -14.121,2.512 -6.945,7.066 -7.187,15.539 -0.394,35.25"
         style="fill:#967c49;fill-opacity:1;fill-rule:nonzero;stroke:none"
         id="path44" />
      <path
         d="m 333.781,360.605 c -14.222,-16.804 -39.347,-16.507 -49.398,0.172 16.34,-10.98 32.836,-8.437 49.398,-0.172"
         style="fill:#967c49;fill-opacity:1;fill-rule:nonzero;stroke:none"
         id="path46" />
      <path
         d="m 264.953,211.18 c -15.074,-9.809 -32.164,-9.657 -45.168,0 15.059,0 29.09,0 45.168,0"
         style="fill:#967c49;fill-opacity:1;fill-rule:nonzero;stroke:none"
         id="path48" />
      <path
         d="m 340.219,180.07 c -14.512,5.946 -14.914,7.246 -6.633,19.75 2.574,3.887 1.047,6.961 -1.981,9.243 -2.882,2.167 -6.066,1.632 -8.265,-1.434 -2.516,-3.5 -2.168,-7.41 1.695,-9.008 8.567,-3.539 10.844,-11.766 15.184,-18.551"
         style="fill:#967c49;fill-opacity:1;fill-rule:nonzero;stroke:none"
         id="path50" />
      <path
         d="m 155.984,198.762 c 1.891,-12.024 -4.336,-16.305 -14.132,-20.809 3.644,8.59 8.375,13.871 14.132,20.809"
         style="fill:#967c49;fill-opacity:1;fill-rule:nonzero;stroke:none"
         id="path52" />
      <path
         d="m 399.336,269.949 c 0.656,-0.926 1.312,-1.851 1.969,-2.777 -0.657,0.926 -1.313,1.851 -1.969,2.777"
         style="fill:#201a1d;fill-opacity:1;fill-rule:nonzero;stroke:none"
         id="path54" />
      <path
         d="m 384.945,288.754 c 0.645,-0.988 1.285,-1.977 1.93,-2.965 -0.645,0.988 -1.285,1.977 -1.93,2.965"
         style="fill:#201a1d;fill-opacity:1;fill-rule:nonzero;stroke:none"
         id="path56" />
      <path
         d="m 51.5664,421.621 c -0.3359,1.016 -1.25,2.57 -0.9023,2.945 1.207,1.289 2.7734,0.957 4.1054,-0.183 -1.0664,-0.922 -2.1367,-1.844 -3.2031,-2.762"
         style="fill:#967c49;fill-opacity:1;fill-rule:nonzero;stroke:none"
         id="path58" />
      <path
         d="m 387.27,370.156 c -0.586,-1.601 -1.934,-2.73 -3.258,-1.601 -1.66,1.422 0.586,2.258 1.242,3.308 0.672,-0.57 1.344,-1.136 2.016,-1.707"
         style="fill:#967c49;fill-opacity:1;fill-rule:nonzero;stroke:none"
         id="path60" />
      <path
         d="m 232.52,467.598 c -0.075,0.609 -0.403,1.015 -0.977,1.222 -2.066,5.231 -10.914,8.676 -4.254,16.2 2.762,1.101 4.145,4.808 8.805,4.043 -5.336,-7.641 -0.77,-14.684 0.777,-21.965 -0.351,-0.321 -0.703,-0.645 -1.055,-0.969 -1.097,0.488 -2.199,0.98 -3.296,1.469"
         style="fill:#967c49;fill-opacity:1;fill-rule:nonzero;stroke:none"
         id="path62" />
      <path
         d="m 236.871,467.098 c 0.238,-0.942 0.477,-1.887 0.711,-2.828 -1.555,-0.301 -1.629,0.808 -1.766,1.859 0.352,0.324 0.704,0.648 1.055,0.969"
         style="fill:#967c49;fill-opacity:1;fill-rule:nonzero;stroke:none"
         id="path64" />
      <path
         d="m 238.125,554.777 c -2.008,-4.699 -3.711,-0.984 -4.566,0.493 -2.735,4.699 -5.082,9.625 -7.516,14.496 -1.188,2.375 -3.363,5.222 -0.156,7.195 3.097,1.902 6.082,6.965 10.644,2.027 -6.902,-7.468 -0.093,-14.644 0.473,-21.945 0.394,-0.754 0.793,-1.516 1.187,-2.277 l -0.066,0.011"
         style="fill:#967c49;fill-opacity:1;fill-rule:nonzero;stroke:none"
         id="path66" />
      <path
         d="m 238.191,554.766 c -0.394,0.761 -0.793,1.523 -1.187,2.277 0.394,-0.762 0.793,-1.52 1.187,-2.277"
         style="fill:#201a1d;fill-opacity:1;fill-rule:nonzero;stroke:none"
         id="path68" />
    </g>
  </g>
</svg>
