<svg width="64.267" height="84.907" xmlns="http://www.w3.org/2000/svg" fill="white"><path d="M22.132 13.331l-.11-.195c-.032.034-.1.075-.093.1.016.071.062.136.096.202l.107-.107zm-.67.564l-.101-.113-.103.106.16.102.045-.095zm22.986 1.796c-.68-2.246-2.316-3.652-3.523-3.298l3.523 3.298zm-13.031-3.118c.472 1.374 1.023 1.43 1.738.14.486-.876 1.046-1.712 1.585-2.556 1.405-2.201 1.335-2.422-1.14-3.336-.243-.09-.517-.097-.777-.141-1.456-.875-2.29.564-3.402.942-.705.24-.74.761-.32 1.38.795 1.174 1.546 2.379 2.316 3.57zm-1.323 9.872l.475.498c.383.437.762.875 1.147 1.309.278.315.606.482.933.104.865-1 1.706-2.02 2.554-3.032.256-.307.102-.567-.076-.853-1.783-2.862-2.922-2.995-5.267-.602-1.426 1.08-1.423 1.116.234 2.576zm-9.69-7.24c.311-.39 1.028-.602.65-1.338-.616.092-.777.572-1.024.965-.098.154-.305.414-.275.446.22.23.447.11.648-.073zm22.892 9.753c1.014.469 2.042.91 3.036 1.417.62.317 1.271.74 1.204 1.54-.059.696-.7 1.014-1.258 1.338-.36.208-.847.19-1.176.728.88.432 1.85.695 2.59 1.371.604.553 1.078 1.18 1.307 1.966.18.617.394 1.36-.076 1.827-.434.43-.973-.157-1.44-.337-2.735-1.053-5.497-1.14-8.298-.317-3.08.905-4.448.146-5.417-3-.06-.197-.128-.392-.21-.645-.713.637-.396 1.43-.515 2.125-.077.452-.295.873-.785.855-.461-.017-.748-.38-.77-.87-.03-.677.067-1.375-.411-2.181-.335.859-.545 1.594-.895 2.256-.885 1.677-2.35 2.273-4.111 1.685-3.21-1.07-6.387-1.136-9.486.339-1.186.564-1.47-.078-1.44-.992.042-1.243.706-2.23 1.725-2.916.698-.47 1.478-.817 2.275-1.248-.188-.13-.352-.257-.529-.363-.75-.45-1.897-.623-1.847-1.742.049-1.073 1.197-1.258 1.948-1.662 1.78-.958 3.72-1.545 5.748-2.176-2.162-.564-6.373.916-11.102 3.828-.623-3.84.09-5.208 3.594-6.661 1.263-.524 2.586-.904 4.282-1.487-2.477-.462-4.345.255-6.224 1.084.59-4.797 6.624-9.907 11.124-10.799-1.002.886-2.237 1.064-3.01 1.927-.488.265-1.368.589-1.02 1.1.4.588.925-.249 1.378-.51.045-.026.077-.073.115-.11 3.055-.593 3.985-.023 5.263 3.4.099-2.784-.06-5.253-2.088-7.14-.599-.557-.283-.764.184-1.026 1.535-.858 3.076-1.703 4.605-2.57.518-.295.966-.277 1.488.032 1.466.868 2.965 1.68 4.441 2.528.406.233.946.452.261 1.017-2.254 1.858-2.247 4.38-2.1 7.191 1.107-2.727 1.517-4.096 5.748-3.276-.452-.988-.635-1.133-2.54-2.014 3.27-.592 9.253 5.002 10.856 10.38-2.002-1.007-3.919-1.634-6.06-1.095 1.211.415 2.438.788 3.63 1.253 3.594 1.4 4.358 2.74 3.884 6.802-2.338-1.488-4.584-3.125-7.476-3.201-.233-.64-.85-.54-1.337-.693-1.888-.59-3.884-.456-5.8-.867-.03-.401.593-.823.11-1.157-.517-.358-.706.293-.957.561-.91.971-1.81 1.957-2.647 2.99-.581.717-1.02.746-1.615.02a63.03 63.03 0 00-2.75-3.108c-.203-.216-.409-.819-.849-.38-.36.358.068.691.291.95 1.047 1.207 2.164 2.356 3.164 3.6.686.851 1.176.822 1.888.032 1.098-1.219 2.025-2.609 3.408-3.556.178-.079.44-.277.522-.219 1.855 1.307 4.115 1.452 6.17 2.176" /><path d="M36.357 38.785c-.02.036-.066.083-.057.108.059.155.142.16.216.01.012-.023-.02-.085-.05-.109-.023-.02-.071-.007-.109-.009zm-6.987 2.306c-.355 1.34-1.235 1.847-2.443 2.251-1.529.511-2.243 2.643-1.594 4.867.388 1.327.31 1.984-1.176 2.22-.906.143-1.472.955-2.085 1.576-.814-.707.478-1.658-.354-2.21-.61-.403-1.38-.556-2.026-.913-.572-.317-1.197-.658-1.364-1.606 1.483.531 2.832 1.139 4.418.566-2.53-1.111-4.974-2.277-5.94-5.107-.291-.851-.526-1.703-.192-2.905 2.278 2.437 4.83 3.087 7.755 1.602-2.106-.117-4.205-.23-5.989-1.564.195-.34.517-.257.726-.188 2.862.94 5.65.4 8.453-.319 1.353-.346 1.97-1.399 2.592-2.431 1.886-3.132 2.298-3.106 4.226-.02 1.83 2.928 4.96 3.048 7.937 3.265 1.362.1 2.677-.51 4.147-.987-1.236 1.618-1.468 1.693-6.302 2.186 1.902 1.502 4.101 1.144 7.666-1.248.472 1.56-.144 3.434-1.522 4.983-1.223 1.375-3.045 1.782-4.86 2.87 1.929.41 3.292-.164 4.899-.752-.448 1.022-1.123 1.478-1.838 1.874-1.763.974-1.768.967-1.8 2.866-1.156-.858-2.159-1.795-3.563-1.983-.636-.085-.28-.516-.162-.849.477-1.34.603-2.69.14-4.07-.29-.861-.785-1.663-1.658-1.797-1.447-.223-1.92-1.12-2.151-2.359-.055-.295-.12-.637-.556-.796 0 1.122-.003 2.212 0 3.302.004.965-.096 1.827 1.443 1.177 1.028-.435 2.01 1.473 1.484 2.804-.873 2.21-4.986 3.912-7.14 2.94-1.166-.526-2.314-1.088-3.155-2.113-.706-.861-.905-1.772-.402-2.815.485-1.007 1.196-1.088 2.104-.62.287.149.561.027.593-.288.112-1.128.359-2.274-.31-3.41M31.823 62.88c-.69 2.911-2.377 4.296-4.951 4.98-2.419.64-3.376 2.34-3.149 4.87.202 2.242-.086 4.364-1.346 6.275-1.202 1.821-3.733 2.35-5.487 1.178-1.273-.85-1.633-2.723-.692-3.778.53-.594 1.264-1.053 1.93-.392.485.481.761 1.032 1.53.582.75-.44 1.205-1.093 1.136-1.964-.049-.627-.242-1.251-.433-1.857-1.108-3.526-.11-5.49 3.404-6.62.556-.179 1.132-.298 1.704-.424 2.772-.614 3.812-2.149 3.349-4.97-.077-.465-.186-.924-.321-1.587 2.333.791 4.55 1.044 6.938-.063-.09.973-.198 1.778-.232 2.587-.098 2.305.786 3.44 3.043 3.966 1.244.289 2.498.532 3.638 1.165 1.8 1 2.55 2.502 2.146 4.528-.207 1.042-.548 2.059-.735 3.104-.166.933.249 1.654 1.077 2.131.76.438 1.039-.135 1.544-.56.865-.732 1.608-.095 2.119.643.866 1.25.125 3.179-1.417 3.832a4.045 4.045 0 01-4.941-1.49c-1.206-1.808-1.55-3.817-1.337-5.955.277-2.791-.76-4.642-3.432-5.34-2.241-.585-3.699-1.748-4.421-3.91-.078-.235-.294-.422-.664-.93M2.877 16.02l-.117.1c.034.039.066.106.102.109.036.003.078-.06.117-.093l-.102-.117zm.17 1.976c1.372 2.543 1.495 2.619 3.198 1.805-1.193-.49-1.747-1.782-3.198-1.805zm4.396-1.971l-5.145-4.856c-.001 1.38.471 2.435 1.048 3.446.114.2.346.655.487.445.844-1.25 1.186.167 1.723.317.582.163.962.815 1.887.648zm-3.282-7.6c.518-.074.588.4.779.67 1.63 2.31 3.345 4.558 5.302 6.596 1.138 1.184 1.34 2.496.965 3.974-.168.668-.47 1.301-.701 1.953-.997 2.804-1.416 5.633-.35 8.982 0-1.23-.024-2.003.005-2.774.085-2.31.515-4.53 1.482-6.66.839-1.85 1.421-3.87-.288-5.508-2.49-2.387-4.349-5.234-6.35-7.991-1.016-1.4-1.77-3.001-3.097-4.359-.05 2.257 1.07 5.285 2.296 6.41.412-.44-.491-.844-.043-1.293zM5.739 24.15c.116.11.234.177.367.023l-.213-.176c-.547-.999-1.461-1.584-2.469-2.078.788.73.188 2.82 2.315 2.23zm2.415 9.035l-.639-.393-.55-.331-1.231-1.179c.323-.617 1.102.01 1.379-.681-.602-1.024-1.812-1.483-2.54-2.429.38-.637.646-.155.958.085.515.396.926 1.035 1.732.803.027.038.059.077.09.116l-.127.02.078-.118-.428-.387.427-.369.408-.078c-.013-.05-.01-.13-.041-.146-.976-.523-1.989-.972-3.094-1.1-.491-.055-.798-.143-.76-.747.44-.142.955.272 1.36-.182-.268-.647-.768-1.102-1.315-1.518-.614-.997-1.244-1.991-1.522-3.148-.139-.58-.786-1.223.43-1.593.64-.195.032-.844-.168-1.194-.625-1.097-1.215-2.197-1.556-3.43.711-.274.972.645 1.731.238C1.906 13.172.49 11.074 0 8.37c1.429.768 2.173 2.09 3.885 2.89C2.22 7.63.765 4.32.395.488c.643.266.859.743 1.143 1.128C5.048 6.37 8.4 11.25 12.726 15.348c1.295 1.227 1.446 2.748.918 4.424-.7 2.227-1.795 4.32-2.047 6.704-.379 3.586.316 6.98 1.755 10.649-1.646-1.22-2.351-2.91-3.946-3.587-.5-1.029-.703-2.426-2.418-1.975.025.82 1.373.655 1.166 1.622M57.918 23.423c.549-.452 1.06 1.532 1.724.182.37-.753 1.056-1.369 1.145-2.557l-2.869 2.375zm4.001-12.85l-4.228 4.006c.981.478 1.371-.673 2.094-.514.304.41-.267.828.14 1.28 1.152-1.368 1.843-2.9 1.994-4.771zM59.68 7.98c.45.762-.275 1.285.195 1.987 1.283-2.324 2.387-4.52 2.53-7.234-.646.347-.838.862-1.129 1.285-2.38 3.465-4.567 7.086-7.488 10.139-2.158 2.258-2.528 3.39-1.297 6.248 1.006 2.337 1.561 4.743 1.563 7.283 0 .324-.06.688.378 1.077.571-3.068.056-5.782-1.017-8.442-.585-1.452-1.157-3.024-.036-4.4 2.11-2.588 4.353-5.07 6.3-7.943zm-.421 18.55c-.51.128-1.017.27-1.53.38-.307.066-.71.03-.78.394-.033.176.228.422.382.617.293.37.679.332.977.068.433-.38.8-.833 1.194-1.255.062-.238.067-.41-.243-.204zm-1.261-7.019c-.153.053-.487-.068-.393.222.062.188.36.085.537-.038l.616-.372-.085 1.201-.08-.025.065-.005c1.224-.813 1.953-1.967 2.244-3.468l-2.416 2.003-.488.482zM51.86 33.62c1.193-4.113 1.235-8.175-.495-12.173-.358-.827-.683-1.68-.912-2.55-.355-1.34-.347-2.71.721-3.738 4.745-4.561 8.407-10 12.492-15.161-.23 3.668-1.598 6.997-3.372 10.582 1.773-.6 2.483-2.041 3.974-2.851-.652 2.737-1.751 4.986-3.09 7.127.808.605 1.179-.32 1.947-.39-.257 1.515-1.011 2.735-1.746 3.968-.271.455-1.05 1.13.373 1.035.672-.045.38.473.304.757a11.117 11.117 0 01-2.254 4.357c-.26.31-1.187.848.176 1.096.84.154.24.73.041 1.092-.774 1.418-2.127 2.32-3.053 3.25-.167 1.09 2.108-.65 1.046 1.3-.724-.432-1.469-.348-2.273-.236-.88.124-.894.54-1.017 1.292-.101.62-.865 1.133-1.334 1.693l-.048.049c-.666.362-.9 1.238-1.705 1.435l-.269-.228.494-1.706" /><path d="M48.036 64.525c-.496-1.776-.571-3.132-.568-4.497a1.849 1.849 0 00-.78-1.52c-2.705-1.89-2.72-4.6-2.34-7.927.439 1.487.61 2.587 1.138 3.573.542 1.01 1.457 1.69 2.094 2.61.817 1.181 1.09 2.51 1.259 3.904.113.93.126 2.024 1.703 1.153.938-.518 1.706.34 2.23 1.096.522.754.318 1.522-.24 2.204-.706.86-1.607 1.067-2.568.573-.686-.352-1.279-.886-2.24-1.573.295 2.73.068 5.11-1.186 7.528-.108-.939-.185-1.687-.282-2.433-.257-1.974-1.343-3.184-3.311-3.582-.417-.084-.83-.193-1.24-.31-3.374-.96-3.876-1.62-3.933-5.129-.041-2.53-.559-4.746-3.314-5.776-.843-.316-1.673-1.182-1.444-2.092.23-.913 1.382-.524 2.11-.551 2.334-.087 3.97 1.76 3.828 4.292-.07 1.233-.12 2.456.229 3.645.265.906.612 1.805 2.105 2.138-1.425-2.143-1.015-4.263-.953-6.341.042-1.41-.55-2.542-1.5-3.598 1.79.05 3.009 1.246 3.15 3.166.077 1.053-.088 2.123-.13 3.185-.078 1.951.616 3.41 2.553 4.148 1.172.447 2.36.884 3.63 2.114M18.015 71.749c-.689-1.394-1.096-2.595-1.231-3.843-.343-3.168.072-4.31 2.906-5.344 2.607-.95 3.094-1.956 2.96-4.782-.041-.85-.175-1.705-.119-2.547.135-2.013 1.428-3.381 3.685-3.653-2.217 1.667-2.076 3.78-1.93 5.929.09 1.314.057 2.646-.791 3.871 1.103.257 1.422-.456 1.692-1.139.502-1.266.502-2.592.416-3.934-.21-3.272 2.17-5.236 5.313-4.462.774.191.8.573.492 1.146-.36.67-.818 1.298-1.538 1.566-2.319.86-2.942 2.738-3.088 4.935-.319 4.809-.445 5.007-5.116 6.118-2.023.482-3.157 1.646-3.406 3.69-.088.72-.146 1.445-.245 2.449M14.133 39.715c1.652 3.384 2.704 6.769.114 10.18-1.08 1.422-.742 2.914-.205 4.412.832 2.326.454 4.42-1.278 6.197-1.372 1.407-3.286 1.323-4.471-.127-.966-1.182-.532-3.168.922-4.194.512-.36 1.05-.513 1.638-.166 1.128.664 1.289-.168 1.365-.948.046-.463-.091-.948-.173-1.42-.434-2.48-.307-4.838 1.035-7.1 1.247-2.102 1.285-4.459 1.053-6.834M52.496 49.071c.26 1.812-.01 3.594-.218 5.391-.121 1.046-.303 2.342 1.611 1.453 1.009-.468 1.646.511 2.163 1.231.691.963.972 2.012.184 3.097-1.073 1.478-3.143 1.7-4.453.414-1.654-1.624-2.308-3.639-1.53-5.824.796-2.244.678-4.134-.784-6.112-1.242-1.678-1.024-3.745-.542-5.692.279-1.127.732-2.21 1.108-3.313.656 1.22-.076 2.569.349 3.81l.07.616c.105.745.25 1.475.786 2.054.001.081.03.152.086.21l.257.395-.003.014c.52.665-.045 1.77.916 2.256M32.41 66.475c1.097 1.651 2.315 2.633 3.732 3.422 1.755.978 2.333 2.136 1.95 4.104-.283 1.456-.84 2.857-1.13 4.311-.167.843-.414 1.993 1.28 1.217 1.11-.51 1.735.51 2.277 1.278.664.938.84 1.965.067 2.953-.947 1.212-2.733 1.469-4.015.605-1.674-1.128-2.563-3.443-2.058-5.485.216-.875.534-1.725.793-2.59.628-2.095.503-3.93-1.432-5.42-1.249-.962-1.626-2.426-1.464-4.395M31.729 66.545c.064 1.972-.387 3.448-1.672 4.454-1.626 1.273-1.898 2.863-1.454 4.698.274 1.132.74 2.222.962 3.362.41 2.11-.287 3.876-1.962 5.228-.981.793-2.055.774-3.143.233-.926-.46-1.58-1.178-1.488-2.247.101-1.18.783-2.066 1.819-2.656.334-.192.686-.309 1.058-.109 1.646.884 1.424-.339 1.254-1.203-.237-1.195-.708-2.342-.99-3.53-.622-2.632-.098-3.755 2.231-5.154.634-.381 1.24-.826 1.792-1.317.504-.449.915-1 1.593-1.76" /><path d="M9.653 35.069c.98.617 1.366 1.395 1.25 2.646-.187 2.037.426 3.999 1.06 5.936.767 2.336-.086 4.95-1.923 6.294-1.05.768-2.075.68-3.127.058-.887-.526-1.5-1.249-1.357-2.334.162-1.235.847-2.17 1.935-2.774.208-.115.566-.154.77-.054 1.878.926 1.547-.483 1.386-1.4-.246-1.41-.724-2.78-1.037-4.18-.332-1.487-.378-2.965.493-4.326l.55.134M53.441 36.496l.206-.605.617-.443a.406.406 0 00.245-.187c1.985-.044 1.432 1.528 1.436 2.508.01 1.868-.803 3.611-1.172 5.428-.382 1.881-.265 1.99 1.502 1.64.254-.05.529.008.794.017.337.332.71.637 1.006 1.003 1.041 1.29 1.087 2.609.161 3.581-1.19 1.25-2.741 1.373-4.106.326l-.623-.48-.262-.37a.387.387 0 00-.135-.26l-.945-2.563-.002-1.27.59-2.343a.144.144 0 00.072-.163l.16-.662.17-.682c.506-1.466.562-2.96.286-4.475M19.988 51.423c.433 2.597.432 5.074-1.973 6.842-1.072.787-1.23 1.932-1.14 3.142.123 1.62-.477 2.91-1.747 3.887-.986.758-2.026.974-3.024.038-.715-.671-1.12-1.494-.447-2.4.683-.917 1.434-1.768 2.753-.835.585.414.874-.075.99-.581.154-.671.249-1.357.36-2.038.181-1.119.483-2.223 1.317-3.013 1.472-1.397 2.411-3.056 2.911-5.042M22.857 35.491c1.262-.043 2.283.37 3.281.88.885.45.71.866.02 1.36-1.626 1.158-4.559.987-6.1-.36-.483-.422-.521-.748.053-1.095.881-.53 1.817-.847 2.746-.785M16.919 48.454c.725 1.87 1.66 3.356.603 5.096-.43.706-1.02 1.093-1.865.865-.625-.168-1.089-.623-1.01-1.257.101-.819.445-1.57 1.537-1.395.703.112.61-.407.62-.814.016-.684-.253-1.366.115-2.495M47.134 49.261c.505.52.313 1.03.368 1.479.076.613.04 1.137.968 1.027.744-.088 1.12.53 1.244 1.2.104.564-.102 1.065-.644 1.33-.693.336-1.326.231-1.883-.336-.926-.942-.958-2.072-.053-4.7M44.504 36.826c-1.896 2.24-5.246 2.2-6.586-.023 2.178 1.464 4.378 1.125 6.586.023M35.327 56.75c-2.01 1.307-4.288 1.287-6.022 0h6.022M45.363 60.897c-1.935-.792-1.989-.966-.885-2.633.343-.518.14-.928-.264-1.232-.384-.29-.809-.218-1.102.19-.335.467-.29.989.226 1.202 1.142.472 1.446 1.569 2.025 2.473M20.798 58.405c.252 1.603-.578 2.174-1.884 2.775.485-1.146 1.116-1.85 1.884-2.775" /><path d="M51.326 46.406l.257.395-.257-.395"/><path d="M6.876 28.69c-.045-.135-.167-.342-.12-.392.16-.172.369-.128.547.024l-.427.369M51.636 35.553c-.078.213-.258.364-.434.213-.222-.19.078-.301.165-.441.09.076.18.151.269.228M31.003 22.56a.186.186 0 00-.13-.163c-.276-.697-1.456-1.156-.568-2.16.368-.146.553-.64 1.174-.539-.711 1.02-.102 1.958.104 2.929a59.49 59.49 0 00-.14.13l-.44-.197" /><path d="M31.583 22.627l.095.377c-.208.04-.218-.108-.236-.248l.14-.13M31.75 10.936c-.268.627-.495.132-.609-.065-.364-.627-.677-1.284-1.002-1.933-.158-.317-.448-.696-.02-.96.412-.253.81-.928 1.418-.27-.92.996-.012 1.953.064 2.926l.158.304-.009-.002" /><path d="M31.759 10.938l-.158-.304.158.304" /></svg>